<svg width="375" height="375" viewBox="0 0 375 375" fill="none" xmlns="http://www.w3.org/2000/svg">
    <path fill-rule="evenodd" clip-rule="evenodd" d="M279.764 183.465L279.737 181.795L268.943 156.775L193.927 181.1L205.889 240.714C238.513 240.714 279.764 218.185 279.764 183.465Z" fill="#F39A00"/>
    <path fill-rule="evenodd" clip-rule="evenodd" d="M253.39 58C312.396 65.4709 358.044 116.313 358.044 177.923L357.994 181.402L179.334 182.854L236.066 58.7471H253.39V58Z" fill="#F8BE2A"/>
    <path fill-rule="evenodd" clip-rule="evenodd" d="M199.66 317.14L17 132.131L51.5585 58.1336L253.526 58.0891L199.66 317.14Z" fill="white"/>
    <path fill-rule="evenodd" clip-rule="evenodd" d="M140.048 91.8617C159.424 91.8617 175.132 106.935 175.132 125.516C175.132 144.106 159.424 159.172 140.048 159.172C120.673 159.172 104.964 144.106 104.964 125.516C104.964 106.935 120.673 91.8617 140.048 91.8617Z" fill="black"/>
</svg>
