<svg width="600" height="600" viewBox="0 0 600 600" fill="none" xmlns="http://www.w3.org/2000/svg">
<path fill-rule="evenodd" clip-rule="evenodd" d="M435.82 294.177L435.78 291.712L419.849 254.784L309.131 290.686L326.786 378.673C374.937 378.673 435.82 345.421 435.82 294.177Z" fill="#F39A00"/>
<path fill-rule="evenodd" clip-rule="evenodd" d="M396.895 109C483.983 120.027 551.356 195.066 551.356 285.998L551.283 291.132L287.594 293.275L371.325 110.103H396.895V109Z" fill="#F8BE2A"/>
<path fill-rule="evenodd" clip-rule="evenodd" d="M317.593 491.472L48 218.411L99.0058 109.197L397.096 109.131L317.593 491.472Z" fill="#504BE5"/>
<path fill-rule="evenodd" clip-rule="evenodd" d="M229.61 158.977C258.208 158.977 281.392 181.224 281.392 208.648C281.392 236.087 258.208 258.322 229.61 258.322C201.013 258.322 177.829 236.087 177.829 208.648C177.829 181.224 201.013 158.977 229.61 158.977Z" fill="white"/>
</svg>
